<?xml version="1.0" encoding="UTF-8"?>
<svg version="1.1" xmlns="http://www.w3.org/2000/svg" width="1080" height="1080">
<path d="M0 0 C356.4 0 712.8 0 1080 0 C1080 356.4 1080 712.8 1080 1080 C723.6 1080 367.2 1080 0 1080 C0 723.6 0 367.2 0 0 Z " fill="#FEFEFE" transform="translate(0,0)"/>
<path d="M0 0 C1.65 0 3.3 0 5 0 C8.46259511 7.36575362 11.51997568 14.7947353 14.3125 22.4375 C17.55415628 31.22156438 20.91780902 39.93869304 24.5246582 48.57983398 C26.22415005 52.72550416 27.48326458 56.50727259 28 61 C29.98 61 31.96 61 34 61 C34 63.64 34 66.28 34 69 C26.08 69 18.16 69 10 69 C10 66.69 10 64.38 10 62 C11.32 61.67 12.64 61.34 14 61 C13.7834375 59.14375 13.7834375 59.14375 13.5625 57.25 C13.44068359 56.20585938 13.44068359 56.20585938 13.31640625 55.140625 C12.98698863 52.67008077 12.98698863 52.67008077 12 49 C4.74 49 -2.52 49 -10 49 C-10.66 51.97 -11.32 54.94 -12 58 C-12.33 58.99 -12.66 59.98 -13 61 C-11.02 61 -9.04 61 -7 61 C-7 63.64 -7 66.28 -7 69 C-11.85612361 69.19875516 -16.7098501 69.34337321 -21.5690918 69.43945312 C-23.21925111 69.47952358 -24.86912922 69.53400048 -26.51831055 69.60351562 C-40.05591587 70.15957552 -40.05591587 70.15957552 -44.48535156 67.51757812 C-46.37170617 65.45053821 -47.66723846 63.45766818 -49 61 C-49.48122314 60.22591797 -49.96244629 59.45183594 -50.45825195 58.65429688 C-52.39921675 55.49042336 -54.20711292 52.26174845 -55.9921875 49.0078125 C-56.44078125 48.23179687 -56.889375 47.45578125 -57.3515625 46.65625 C-57.74166504 45.95306641 -58.13176758 45.24988281 -58.53369141 44.52539062 C-59.01757324 44.02201172 -59.50145508 43.51863281 -60 43 C-61.65 43 -63.3 43 -65 43 C-65 48.94 -65 54.88 -65 61 C-63.02 61 -61.04 61 -59 61 C-59 63.64 -59 66.28 -59 69 C-66.92 69 -74.84 69 -83 69 C-83 66.69 -83 64.38 -83 62 C-81.35 61.34 -79.7 60.68 -78 60 C-77.67 43.17 -77.34 26.34 -77 9 C-78.98 9 -80.96 9 -83 9 C-83 6.69 -83 4.38 -83 2 C-78.46515136 1.90027399 -73.9309568 1.82813345 -69.39526367 1.78027344 C-67.85608789 1.76029879 -66.31698662 1.73310903 -64.77807617 1.69824219 C-54.53433931 1.47215517 -46.20217592 1.57261624 -38.0625 8.5 C-34.47728902 12.84571028 -33.5410427 16.05962271 -33.6875 21.625 C-34.39938757 27.03534557 -36.91075795 31.30614864 -40.9375 34.9375 C-43.8985664 36.93168757 -45.57144828 37.44887917 -49 38 C-46.90191193 41.27476989 -44.79549478 44.54410001 -42.6875 47.8125 C-42.09259766 48.74126953 -41.49769531 49.67003906 -40.88476562 50.62695312 C-40.30791016 51.51962891 -39.73105469 52.41230469 -39.13671875 53.33203125 C-38.60780029 54.15421143 -38.07888184 54.9763916 -37.53393555 55.82348633 C-36.13640073 57.8064599 -34.86220541 59.44898542 -33 61 C-30.25756437 61.36270484 -30.25756437 61.36270484 -27.3125 61.1875 C-25.54166667 61.125 -23.77083333 61.0625 -22 61 C-21.82916397 60.33350937 -21.65832794 59.66701874 -21.48231506 58.98033142 C-19.68800302 52.17081437 -17.52258126 45.59763423 -15.05859375 39.00390625 C-14.50607689 37.50995583 -14.50607689 37.50995583 -13.94239807 35.98582458 C-13.1706138 33.90191398 -12.39657659 31.81883647 -11.62036133 29.73657227 C-10.43223534 26.5483729 -9.2517089 23.35743599 -8.07226562 20.16601562 C-7.31814917 18.13264895 -6.56360707 16.09944008 -5.80859375 14.06640625 C-5.45647324 13.11536514 -5.10435272 12.16432404 -4.74156189 11.1844635 C-4.24578392 9.85674171 -4.24578392 9.85674171 -3.73999023 8.50219727 C-3.4514769 7.72707291 -3.16296356 6.95194855 -2.8657074 6.15333557 C-2.01484287 4.03691973 -1.04969625 2.0241459 0 0 Z " fill="#080808" transform="translate(657,507)"/>
<path d="M0 0 C4.53489627 -0.04986353 9.0696289 -0.08593637 13.60473633 -0.10986328 C15.14382715 -0.11985006 16.68289935 -0.13344419 18.22192383 -0.15087891 C31.55946367 -0.2980637 43.72079711 -0.05728611 53.89453125 9.84375 C61.31065446 18.36056303 62.50341585 26.1837123 62.3046875 37.3125 C61.52390268 46.76199831 57.11969756 53.83122095 50 60 C46.78840461 62.03202795 43.53722967 63.61948246 40 65 C39.12408203 65.34603271 38.24816406 65.69206543 37.34570312 66.04858398 C33.49155812 67.14458538 29.94332932 67.25276288 25.9765625 67.1953125 C25.23038666 67.1924826 24.48421082 67.18965271 23.71542358 67.18673706 C21.35178012 67.17561687 18.98852732 67.15052821 16.625 67.125 C15.01432842 67.11495962 13.40365085 67.10583562 11.79296875 67.09765625 C7.86183056 67.0757044 3.93098133 67.04123185 0 67 C0 64.69 0 62.38 0 60 C1.98 59.34 3.96 58.68 6 58 C6.33 41.17 6.66 24.34 7 7 C4.69 7 2.38 7 0 7 C0 4.69 0 2.38 0 0 Z " fill="#040404" transform="translate(502,509)"/>
<path d="M0 0 C4.80065254 -1.4176927 9.34764964 -2.09973335 14 0 C19.81178518 5.20228938 24.0316941 12.02934122 28.32470703 18.48388672 C30.23569479 21.35398871 32.25013802 24.1125315 34.3125 26.875 C35.529375 28.56625 36.74625 30.2575 38 32 C41.63 36.95 45.26 41.9 49 47 C49.33 34.13 49.66 21.26 50 8 C48.02 8 46.04 8 44 8 C44 5.69 44 3.38 44 1 C50.6 1 57.2 1 64 1 C64 2.98 64 4.96 64 7 C62.35 7.66 60.7 8.32 59 9 C58.67 28.8 58.34 48.6 58 69 C50 69 50 69 48.04467773 67.57324219 C47.59552002 66.90454102 47.1463623 66.23583984 46.68359375 65.546875 C46.15443359 64.79188721 45.62527344 64.03689941 45.08007812 63.2590332 C44.26700195 62.01706177 44.26700195 62.01706177 43.4375 60.75 C42.22943739 59.00802279 41.01974512 57.26717484 39.80859375 55.52734375 C39.18839355 54.61968262 38.56819336 53.71202148 37.92919922 52.77685547 C34.74544442 48.19421473 31.36897866 43.75973637 28 39.3125 C26.79108323 37.70486566 25.58272577 36.09681052 24.375 34.48828125 C23.86710937 33.81321533 23.35921875 33.13814941 22.8359375 32.44262695 C20.22118988 28.96383042 17.61113289 25.48151052 15 22 C14.67 34.54 14.34 47.08 14 60 C16.31 60 18.62 60 21 60 C21 62.64 21 65.28 21 68 C14.07 68 7.14 68 0 68 C0 65.69 0 63.38 0 61 C2.475 60.505 2.475 60.505 5 60 C5.33 54.39 5.66 48.78 6 43 C3.03 42.505 3.03 42.505 0 42 C-2.16015625 40.36328125 -2.16015625 40.36328125 -4.0625 38.3125 C-4.73667969 37.59578125 -5.41085937 36.8790625 -6.10546875 36.140625 C-7.72937135 34.30578248 -9.31833072 32.45438125 -10.875 30.5625 C-12.74164041 27.96125481 -12.74164041 27.96125481 -15 27 C-15.33 37.89 -15.66 48.78 -16 60 C-14.02 60 -12.04 60 -10 60 C-10 62.64 -10 65.28 -10 68 C-17.92 68 -25.84 68 -34 68 C-34 65.69 -34 63.38 -34 61 C-31.525 60.505 -31.525 60.505 -29 60 C-28.67 42.84 -28.34 25.68 -28 8 C-29.98 8 -31.96 8 -34 8 C-34 5.69 -34 3.38 -34 1 C-26.08 1 -18.16 1 -10 1 C-10 2.98 -10 4.96 -10 7 C-11.65 7.66 -13.3 8.32 -15 9 C-15.33 13.95 -15.66 18.9 -16 24 C-14.68 24.33 -13.36 24.66 -12 25 C-7.83267045 27.74166418 -5.19434842 31.19259983 -2.33203125 35.1953125 C0.42414265 38.92948359 1.01795233 39.00359047 6 40 C6 29.44 6 18.88 6 8 C4.02 8 2.04 8 0 8 C0 5.36 0 2.72 0 0 Z " fill="#050505" transform="translate(429,508)"/>
<path d="M0 0 C1.134375 0.020625 2.26875 0.04125 3.4375 0.0625 C4.11158308 1.32941507 4.77650497 2.60120749 5.4375 3.875 C5.80875 4.58269531 6.18 5.29039062 6.5625 6.01953125 C7.4375 8.0625 7.4375 8.0625 7.4375 11.0625 C10.4075 11.0625 13.3775 11.0625 16.4375 11.0625 C16.4375 16.0125 16.4375 20.9625 16.4375 26.0625 C13.4675 26.0625 10.4975 26.0625 7.4375 26.0625 C7.251875 27.0834375 7.251875 27.0834375 7.0625 28.125 C6.34649123 31.4902412 5.40804875 34.76263425 4.4375 38.0625 C0.1732169 38.47854875 -1.85453442 38.61907619 -5.29154968 35.91702271 C-6.21200577 34.99968353 -7.13246185 34.08234436 -8.08081055 33.13720703 C-16.89984897 25.51942434 -27.20422283 26.70317568 -38.26953125 26.8671875 C-40.44814723 26.86339404 -42.62675957 26.85519324 -44.80534363 26.84280396 C-50.49903251 26.82211809 -56.19078456 26.86073152 -61.88421631 26.91229248 C-67.70994066 26.95436099 -73.53550113 26.93952978 -79.36132812 26.9296875 C-90.76226293 26.91871155 -102.16196343 26.97046867 -113.5625 27.0625 C-113.5625 22.1125 -113.5625 17.1625 -113.5625 12.0625 C-112.35393845 12.05663376 -111.14537689 12.05076752 -109.90019226 12.04472351 C-98.52541456 11.98757659 -87.15082952 11.91485725 -75.77624798 11.82678509 C-69.92807574 11.7820067 -64.07997438 11.74276709 -58.23168945 11.71606445 C-52.59057533 11.69010597 -46.94973287 11.64975664 -41.30878639 11.59931374 C-39.15379012 11.58259447 -36.99874682 11.57111182 -34.84369469 11.56488609 C-31.83129591 11.55529997 -28.81960014 11.5273067 -25.80737305 11.49487305 C-24.91113724 11.49630814 -24.01490143 11.49774323 -23.09150696 11.4992218 C-21.86106155 11.48041458 -21.86106155 11.48041458 -20.60575867 11.46122742 C-19.5369397 11.45431397 -19.5369397 11.45431397 -18.44652843 11.44726086 C-16.00628206 10.94890782 -15.17846976 9.91208986 -13.5625 8.0625 C-12.03556947 6.83559792 -10.49289408 5.62811111 -8.9375 4.4375 C-3.22568182 0.05659091 -3.22568182 0.05659091 0 0 Z " fill="#121212" transform="translate(798.5625,524.9375)"/>
<path d="M0 0 C1.65 0 3.3 0 5 0 C8.46259511 7.36575362 11.51997568 14.7947353 14.3125 22.4375 C17.55415628 31.22156438 20.91780902 39.93869304 24.5246582 48.57983398 C26.22415005 52.72550416 27.48326458 56.50727259 28 61 C29.98 61 31.96 61 34 61 C34 63.64 34 66.28 34 69 C26.08 69 18.16 69 10 69 C10 66.69 10 64.38 10 62 C11.98 61.505 11.98 61.505 14 61 C13.855625 59.7625 13.71125 58.525 13.5625 57.25 C13.48128906 56.55390625 13.40007813 55.8578125 13.31640625 55.140625 C12.98698863 52.67008077 12.98698863 52.67008077 12 49 C4.74 49 -2.52 49 -10 49 C-10.66 51.97 -11.32 54.94 -12 58 C-12.33 58.99 -12.66 59.98 -13 61 C-11.35 61 -9.7 61 -8 61 C-8 63.31 -8 65.62 -8 68 C-14.27 68 -20.54 68 -27 68 C-27 66.35 -27 64.7 -27 63 C-25.81095314 62.65776146 -25.81095314 62.65776146 -24.59788513 62.30860901 C-21.83836907 61.25901696 -21.83836907 61.25901696 -20.99403381 58.78501892 C-20.80916916 57.88650711 -20.6243045 56.9879953 -20.43383789 56.06225586 C-19.06534039 50.17677721 -17.17188706 44.65916267 -15.05859375 39.00390625 C-14.69024918 38.0079393 -14.3219046 37.01197235 -13.94239807 35.98582458 C-13.1706138 33.90191398 -12.39657659 31.81883647 -11.62036133 29.73657227 C-10.43223534 26.5483729 -9.2517089 23.35743599 -8.07226562 20.16601562 C-7.31814917 18.13264895 -6.56360707 16.09944008 -5.80859375 14.06640625 C-5.45647324 13.11536514 -5.10435272 12.16432404 -4.74156189 11.1844635 C-4.41104324 10.29931564 -4.0805246 9.41416779 -3.73999023 8.50219727 C-3.30722023 7.33951073 -3.30722023 7.33951073 -2.8657074 6.15333557 C-2.01484287 4.03691973 -1.04969625 2.0241459 0 0 Z " fill="#060606" transform="translate(657,507)"/>
<path d="M0 0 C1.74261306 0.003746 3.48522828 0.00658542 5.22784424 0.00857544 C9.73873059 0.01608732 14.24948104 0.03562312 18.76031494 0.0579834 C23.39357669 0.07871571 28.02686115 0.08763471 32.66015625 0.09765625 C41.69538078 0.11888546 50.73047015 0.15396022 59.765625 0.1953125 C59.765625 5.1453125 59.765625 10.0953125 59.765625 15.1953125 C50.0792808 15.28686585 40.39323903 15.35973336 30.70655441 15.40256119 C26.20524357 15.4231499 21.70425208 15.4509177 17.203125 15.49707031 C-31.67450894 15.98479919 -31.67450894 15.98479919 -53.234375 9.1953125 C-52.904375 7.8753125 -52.574375 6.5553125 -52.234375 5.1953125 C-35.13216435 0.51405046 -17.63524126 -0.11439663 0 0 Z " fill="#0F0F0F" transform="translate(329.234375,535.8046875)"/>
<path d="M0 0 C7.45512513 0.06546762 12.99245952 1.89339911 18.68359375 6.76171875 C24.39060053 12.9428982 25.64072915 20.12764725 25.4140625 28.27734375 C24.53411678 36.03064323 21.79896854 43.02965432 16.0625 48.375 C10.40955639 51.81110298 5.53116869 53.50907171 -1.125 53.4375 C-2.75501953 53.42396484 -2.75501953 53.42396484 -4.41796875 53.41015625 C-5.24941406 53.39855469 -6.08085938 53.38695312 -6.9375 53.375 C-6.96276692 45.98771898 -6.9803316 38.60044902 -6.99243164 31.21313477 C-6.99747363 28.69783105 -7.00430703 26.18253028 -7.01293945 23.66723633 C-7.02501094 20.06070225 -7.03072949 16.45420677 -7.03515625 12.84765625 C-7.04031754 11.71538101 -7.04547882 10.58310577 -7.05079651 9.41651917 C-7.05087204 8.37551559 -7.05094757 7.33451202 -7.05102539 6.26196289 C-7.053246 5.34040909 -7.05546661 4.41885529 -7.05775452 3.46937561 C-6.81010275 -0.84377488 -3.6799921 0.11164503 0 0 Z " fill="#FCFCFC" transform="translate(526.9375,515.625)"/>
<path d="M0 0 C7.92 0 15.84 0 24 0 C24 1.98 24 3.96 24 6 C22.35 6.66 20.7 7.32 19 8 C18.67 12.95 18.34 17.9 18 23 C19.32 23.33 20.64 23.66 22 24 C26.16732955 26.74166418 28.80565158 30.19259983 31.66796875 34.1953125 C34.42414265 37.92948359 35.01795233 38.00359047 40 39 C40 28.44 40 17.88 40 7 C40.33 7 40.66 7 41 7 C41 23.5 41 40 41 57 C40.67 57 40.34 57 40 57 C40 52.05 40 47.1 40 42 C37.03 41.505 37.03 41.505 34 41 C31.83984375 39.36328125 31.83984375 39.36328125 29.9375 37.3125 C29.26332031 36.59578125 28.58914063 35.8790625 27.89453125 35.140625 C26.27062865 33.30578248 24.68166928 31.45438125 23.125 29.5625 C21.25835959 26.96125481 21.25835959 26.96125481 19 26 C18.67 36.89 18.34 47.78 18 59 C19.98 59 21.96 59 24 59 C24 61.64 24 64.28 24 67 C16.08 67 8.16 67 0 67 C0 64.69 0 62.38 0 60 C2.475 59.505 2.475 59.505 5 59 C5.33 41.84 5.66 24.68 6 7 C4.02 7 2.04 7 0 7 C0 4.69 0 2.38 0 0 Z " fill="#050505" transform="translate(395,509)"/>
<path d="M0 0 C4.69159716 3.38772897 9.0299782 6.78185183 13 11 C14.485 5.555 14.485 5.555 16 0 C18.9156164 3.54039134 21.50127818 7.1626772 24 11 C23.67 11.66 23.34 12.32 23 13 C22.01 12.01 21.02 11.02 20 10 C19.67 13.63 19.34 17.26 19 21 C16.69 19.68 14.38 18.36 12 17 C11.505 19.475 11.505 19.475 11 22 C9.35 22 7.7 22 6 22 C6.99 22.99 7.98 23.98 9 25 C7.75453595 28.73639216 6.36595047 29.18756513 3 31 C5.97 31.66 8.94 32.32 12 33 C11.01 35.97 10.02 38.94 9 42 C11.31 41.01 13.62 40.02 16 39 C16 41.97 16 44.94 16 48 C17.32 47.34 18.64 46.68 20 46 C20.99 46.33 21.98 46.66 23 47 C21.71451591 48.33929505 20.42141845 49.67128643 19.125 51 C18.40570313 51.7425 17.68640625 52.485 16.9453125 53.25 C15 55 15 55 13 55 C12.505 50.545 12.505 50.545 12 46 C11.15695312 46.5053125 10.31390625 47.010625 9.4453125 47.53125 C7.80175781 48.50578125 7.80175781 48.50578125 6.125 49.5 C4.48917969 50.47453125 4.48917969 50.47453125 2.8203125 51.46875 C0 53 0 53 -2 53 C-0.25684402 46.55032286 2.58907844 42.25335619 6 36 C-3.24 36 -12.48 36 -22 36 C-22 35.34 -22 34.68 -22 34 C-21.41508789 33.79842285 -20.83017578 33.5968457 -20.22753906 33.38916016 C-17.56737162 32.47060571 -14.90868088 31.54784791 -12.25 30.625 C-11.32960937 30.30789063 -10.40921875 29.99078125 -9.4609375 29.6640625 C-8.57148438 29.3546875 -7.68203125 29.0453125 -6.765625 28.7265625 C-5.94868164 28.44377441 -5.13173828 28.16098633 -4.29003906 27.86962891 C-2.10693871 27.04060935 -0.06693116 26.08327115 2 25 C-0.04142311 23.27054511 -2.08313202 21.54142952 -4.125 19.8125 C-4.69476563 19.32974609 -5.26453125 18.84699219 -5.8515625 18.34960938 C-9.55341695 15.21565305 -13.27017932 12.100626 -17 9 C-13.42515711 7.8083857 -12.71412118 8.25211544 -9.33203125 9.65234375 C-8.43935547 10.01650391 -7.54667969 10.38066406 -6.62695312 10.75585938 C-5.69818359 11.14580078 -4.76941406 11.53574219 -3.8125 11.9375 C-2.87212891 12.32357422 -1.93175781 12.70964844 -0.96289062 13.10742188 C1.36169628 14.06321649 3.68229199 15.02767007 6 16 C5.566875 15.01257813 5.13375 14.02515625 4.6875 13.0078125 C4.12480955 11.71362446 3.56231995 10.41934907 3 9.125 C2.71382812 8.47402344 2.42765625 7.82304688 2.1328125 7.15234375 C0 2.2265625 0 2.2265625 0 0 Z " fill="#101010" transform="translate(251,514)"/>
<path d="M0 0 C0.66 5.94 1.32 11.88 2 18 C3.55332031 17.48308594 5.10664062 16.96617187 6.70703125 16.43359375 C8.74203504 15.76776302 10.77719972 15.10242386 12.8125 14.4375 C13.83666016 14.09525391 14.86082031 13.75300781 15.91601562 13.40039062 C16.89892578 13.08134766 17.88183594 12.76230469 18.89453125 12.43359375 C19.80050049 12.13509521 20.70646973 11.83659668 21.63989258 11.52905273 C24 11 24 11 27 12 C26.25427734 12.45850342 25.50855469 12.91700684 24.74023438 13.3894043 C21.93703155 15.11313043 19.13399085 16.83711961 16.33105469 18.5612793 C15.12473796 19.3032445 13.91835928 20.04510898 12.71191406 20.78686523 C11.53985677 21.50749582 10.36789939 22.22828891 9.19604492 22.94924927 C7.49437966 23.99595379 5.79211618 25.04168556 4.08984375 26.08740234 C1.47111161 27.7083843 -1.12578959 29.35790314 -3.71875 31.01953125 C-7 33 -7 33 -9 33 C-9 25.41 -9 17.82 -9 10 C-26.82 16.93 -26.82 16.93 -45 24 C-46.15866723 19.36533108 -45.70010994 16.66739961 -45 12 C-45.99 11.67 -46.98 11.34 -48 11 C-48 10.34 -48 9.68 -48 9 C-45.36 8.34 -42.72 7.68 -40 7 C-40 9.97 -40 12.94 -40 16 C-39.30028076 15.66266846 -38.60056152 15.32533691 -37.87963867 14.9777832 C-34.64952614 13.42143931 -31.41851907 11.86696095 -28.1875 10.3125 C-27.08728516 9.78205078 -25.98707031 9.25160156 -24.85351562 8.70507812 C-22.65001026 7.64557554 -20.44411467 6.59102947 -18.23583984 5.54150391 C-16.10459475 4.52621181 -13.97966731 3.49753338 -11.86181641 2.45458984 C-10.8929248 1.98875488 -9.9240332 1.52291992 -8.92578125 1.04296875 C-8.07024658 0.62426514 -7.21471191 0.20556152 -6.33325195 -0.22583008 C-4 -1 -4 -1 0 0 Z " fill="#090909" transform="translate(865,532)"/>
<path d="M0 0 C3.68342859 2.94674287 5.65556252 4.56947674 8.1875 8.1875 C10.31729195 11.21641256 11.3748584 12.71181218 15.13671875 13.37890625 C19.12459763 13.66593582 21.87791456 13.86046989 25.14453125 11.35546875 C27.98889901 8.12785987 30.17461702 4.89649058 32 1 C32.60583951 10.6429456 31.65455654 19.45133708 25.75 27.4375 C17.87092746 34.77936305 10.8347525 35 0 35 C0 23.45 0 11.9 0 0 Z " fill="#FAFAFA" transform="translate(520,534)"/>
<path d="M0 0 C3.84685043 1.48801247 5.34528502 3.58737382 7.5625 7 C9.63056299 10.16888048 10.81345774 11.87563849 14 14 C16.32387947 14.39387788 18.65793749 14.73486085 21 15 C19.88689705 18.31661969 18.75755375 21.62747685 17.625 24.9375 C17.30789063 25.88302734 16.99078125 26.82855469 16.6640625 27.80273438 C16.3546875 28.70185547 16.0453125 29.60097656 15.7265625 30.52734375 C15.30238037 31.77632446 15.30238037 31.77632446 14.86962891 33.05053711 C14 35 14 35 12 36 C8.86458265 36.61942054 6.13088403 36.67792696 3 36 C-0.04045631 33.85417689 -1.92076634 31.05484011 -4 28 C-4.38784668 27.43216797 -4.77569336 26.86433594 -5.17529297 26.27929688 C-13 14.72897264 -13 14.72897264 -13 12 C-12.46890625 11.76925781 -11.9378125 11.53851562 -11.390625 11.30078125 C-6.81455755 9.18810777 -3.79604836 7.36183544 -1 3 C-0.67 2.01 -0.34 1.02 0 0 Z " fill="#FBFBFB" transform="translate(621,533)"/>
<path d="M0 0 C12.52941176 0 12.52941176 0 17 4 C18.90224187 7.80448374 18.88313776 11.89095626 18 16 C15.68911629 18.8782882 13.02297368 20.91012179 10 23 C9.67 23.33 9.34 23.66 9 24 C6.03 24 3.06 24 0 24 C0 16.08 0 8.16 0 0 Z " fill="#FCFCFC" transform="translate(592,516)"/>
<path d="M0 0 C26.4 0 52.8 0 80 0 C80.495 5.445 80.495 5.445 81 11 C83.97 7.37 86.94 3.74 90 0 C90.495 1.98 90.495 1.98 91 4 C89.19921875 6.578125 89.19921875 6.578125 86.6875 9.25 C85.86636719 10.14203125 85.04523438 11.0340625 84.19921875 11.953125 C82 14 82 14 80 14 C80 14.99 80 15.98 80 17 C53.93 17 27.86 17 1 17 C1 16.67 1 16.34 1 16 C26.74 16 52.48 16 79 16 C79 11.05 79 6.1 79 1 C52.93 1 26.86 1 0 1 C0 0.67 0 0.34 0 0 Z " fill="#949494" transform="translate(310,535)"/>
<path d="M0 0 C0.66 0 1.32 0 2 0 C3.17192435 3.12305373 4.33663876 6.24874739 5.5 9.375 C5.83386719 10.26445313 6.16773438 11.15390625 6.51171875 12.0703125 C6.82753906 12.92109375 7.14335938 13.771875 7.46875 14.6484375 C7.76201172 15.43395996 8.05527344 16.21948242 8.35742188 17.02880859 C9 19 9 19 9 21 C3.72 21 -1.56 21 -7 21 C-4.9376064 13.88474206 -2.59810321 6.93706745 0 0 Z " fill="#EEEEEE" transform="translate(657,528)"/>
<path d="M0 0 C0.33 0 0.66 0 1 0 C1 16.5 1 33 1 50 C0.67 50 0.34 50 0 50 C0 45.05 0 40.1 0 35 C-1.98 34.67 -3.96 34.34 -6 34 C-8.16015625 32.36328125 -8.16015625 32.36328125 -10.0625 30.3125 C-10.73667969 29.59578125 -11.41085937 28.8790625 -12.10546875 28.140625 C-13.72937135 26.30578248 -15.31833072 24.45438125 -16.875 22.5625 C-18.74164041 19.96125481 -18.74164041 19.96125481 -21 19 C-21.33 29.89 -21.66 40.78 -22 52 C-22.33 52 -22.66 52 -23 52 C-23 35.5 -23 19 -23 2 C-22.67 2 -22.34 2 -22 2 C-22 6.62 -22 11.24 -22 16 C-20.68 16.33 -19.36 16.66 -18 17 C-13.83267045 19.74166418 -11.19434842 23.19259983 -8.33203125 27.1953125 C-5.57585735 30.92948359 -4.98204767 31.00359047 0 32 C0 21.44 0 10.88 0 0 Z " fill="#6D6D6D" transform="translate(435,516)"/>
<path d="M0 0 C6.45872691 0.26362151 9.5848317 2.37508499 14 7 C14.51175781 7.51691406 15.02351563 8.03382813 15.55078125 8.56640625 C19.40644067 13.07372642 19.44902949 17.03917392 19.17578125 22.83984375 C19.11777344 23.55269531 19.05976563 24.26554688 19 25 C14.75426997 20.98970787 11.28704094 16.62319118 7.8125 11.9375 C7.27947266 11.23044922 6.74644531 10.52339844 6.19726562 9.79492188 C3.82211203 6.61311234 1.70049829 3.60143555 0 0 Z " fill="#F6F6F6" transform="translate(460,531)"/>
<path d="M0 0 C0.33 0 0.66 0 1 0 C1 16.83 1 33.66 1 51 C0.67 51 0.34 51 0 51 C0 40.44 0 29.88 0 19 C-5.05829236 22.97877141 -5.05829236 22.97877141 -8.4375 27.5625 C-11.05120429 31.43653419 -13.77350954 33.04329145 -18 35 C-18.99 35 -19.98 35 -21 35 C-21 34.01 -21 33.02 -21 32 C-20.030625 31.731875 -19.06125 31.46375 -18.0625 31.1875 C-13.01379835 29.09838208 -10.36173924 24.77868168 -7.2109375 20.49609375 C-5 18 -5 18 0 16 C0 10.72 0 5.44 0 0 Z " fill="#828282" transform="translate(508,516)"/>
<path d="M0 0 C4.12804994 2.9139176 6.79692595 6.20987621 9.66796875 10.29296875 C11.34592536 12.44331198 12.46921182 12.90587486 15.13671875 13.37890625 C19.12459763 13.66593582 21.87791456 13.86046989 25.14453125 11.35546875 C28.05083938 8.05757384 30.02505271 4.94989459 32 1 C32 4.96 32 8.92 32 13 C31.34 12.01 30.68 11.02 30 10 C28.88625 11.175625 28.88625 11.175625 27.75 12.375 C24.02826363 15.92756654 22.34738767 16.79789185 17.25 17.5625 C12.55511277 17.44010071 10.10092246 15.19034472 6.83203125 12.01171875 C0 4.50959488 0 4.50959488 0 0 Z " fill="#8C8C8C" transform="translate(520,534)"/>
<path d="M0 0 C2.91868737 2.91868737 4.71943078 4.86571796 6.75 8.25 C7.17796875 8.95640625 7.6059375 9.6628125 8.046875 10.390625 C8.36140625 10.92171875 8.6759375 11.4528125 9 12 C6.10492782 14.97549085 3.33810482 17.49642139 0 20 C0 13.4 0 6.8 0 0 Z " fill="#F0F0F0" transform="translate(443,528)"/>
<path d="M0 0 C3.84685043 1.48801247 5.34528502 3.58737382 7.5625 7 C9.63056299 10.16888048 10.81345774 11.87563849 14 14 C16.32387947 14.39387788 18.65793749 14.73486085 21 15 C20.67 15.99 20.34 16.98 20 18 C14.22451437 17.65347086 10.89433552 16.16830887 7 12 C0 3.92307692 0 3.92307692 0 0 Z " fill="#949494" transform="translate(621,533)"/>
<path d="M0 0 C6.42697232 0.2623254 9.63177737 2.35229393 14 7 C15.95739703 9.28041575 17.43196614 11.40294391 19 14 C18.67 14.99 18.34 15.98 18 17 C17.27554687 16.15695312 16.55109375 15.31390625 15.8046875 14.4453125 C14.82874589 13.33799413 13.85214844 12.23125355 12.875 11.125 C12.400625 10.56941406 11.92625 10.01382813 11.4375 9.44140625 C8.18448032 5.79274904 5.76955984 4.42395555 1 3 C0.67 2.01 0.34 1.02 0 0 Z " fill="#8E8E8E" transform="translate(460,531)"/>
<path d="M0 0 C7.42682268 1.39252925 11.80374946 5.4841244 16.796875 10.9765625 C18 13 18 13 17.6875 15.25 C17.460625 15.8275 17.23375 16.405 17 17 C16.43152344 16.21753906 15.86304688 15.43507813 15.27734375 14.62890625 C14.11912109 13.11103516 14.11912109 13.11103516 12.9375 11.5625 C12.18339844 10.55316406 11.42929687 9.54382813 10.65234375 8.50390625 C7.42720675 5.45926292 5.35561051 5.20791776 1 5 C0.67 3.35 0.34 1.7 0 0 Z " fill="#8A8A8A" transform="translate(562,530)"/>
<path d="M0 0 C0.33 0 0.66 0 1 0 C1 3.96 1 7.92 1 12 C0.34 11.01 -0.32 10.02 -1 9 C-2.11375 10.175625 -2.11375 10.175625 -3.25 11.375 C-6.75620438 14.72183145 -8.39766168 15.9383716 -13.25 16.125 C-14.1575 16.08375 -15.065 16.0425 -16 16 C-16 15.34 -16 14.68 -16 14 C-14.824375 13.835 -13.64875 13.67 -12.4375 13.5 C-7.02819733 12.17173707 -3.96800913 8.55955025 -1 4 C-0.29089071 1.84774584 -0.29089071 1.84774584 0 0 Z " fill="#8C8C8C" transform="translate(551,535)"/>
<path d="M0 0 C5.44821123 2.47645965 8.82512724 7.07553339 12 12 C12.703125 14.28515625 12.703125 14.28515625 13 16 C8.53195417 13.76597708 6.67266538 11.14723939 4 7 C3.34 7 2.68 7 2 7 C1.34 4.69 0.68 2.38 0 0 Z " fill="#858585" transform="translate(672,533)"/>
<path d="M0 0 C0.66 0 1.32 0 2 0 C2.66 2.31 3.32 4.62 4 7 C1.42215154 9.64752004 -0.91648098 11.94432065 -4 14 C-3.00956295 9.16371695 -2.04301154 4.52381127 0 0 Z " fill="#ABABAB" transform="translate(657,528)"/>
<path d="M0 0 C2.475 0.495 2.475 0.495 5 1 C4.67 1.66 4.34 2.32 4 3 C3.01 3 2.02 3 1 3 C1 8.94 1 14.88 1 21 C0.67 21 0.34 21 0 21 C0 14.07 0 7.14 0 0 Z " fill="#7C7C7C" transform="translate(591,547)"/>
<path d="M0 0 C0.99 1.32 1.98 2.64 3 4 C0.14723863 6.93200474 -2.65079784 9.64315404 -6 12 C-5.42316338 8.10635283 -3.45178223 5.98810959 -1 3 C-0.67 2.01 -0.34 1.02 0 0 Z " fill="#898989" transform="translate(449,536)"/>
<path d="M0 0 C3.47132095 1.40929697 4.88093274 2.90605083 6.75 6.125 C7.39195312 7.21167969 7.39195312 7.21167969 8.046875 8.3203125 C8.51867187 9.15175781 8.51867187 9.15175781 9 10 C4.36771604 9.1883605 2.71297718 6.76802386 0 3 C0 2.01 0 1.02 0 0 Z " fill="#868686" transform="translate(621,533)"/>
<path d="M0 0 C0.8125 1.6875 0.8125 1.6875 1 4 C-1.3125 6.75 -1.3125 6.75 -4 9 C-4.66 9 -5.32 9 -6 9 C-4.47291037 5.56404834 -2.40072955 2.88087546 0 0 Z " fill="#909090" transform="translate(400,535)"/>
<path d="M0 0 C3.63 0.33 7.26 0.66 11 1 C11 1.33 11 1.66 11 2 C9.02 2 7.04 2 5 2 C5 2.66 5 3.32 5 4 C2.525 3.01 2.525 3.01 0 2 C0 1.34 0 0.68 0 0 Z " fill="#9F9F9F" transform="translate(530,547)"/>
<path d="M0 0 C-3.96 1.98 -3.96 1.98 -8 4 C-8.33 3.01 -8.66 2.02 -9 1 C-3.375 -1.125 -3.375 -1.125 0 0 Z " fill="#2C2C2C" transform="translate(892,544)"/>
<path d="M0 0 C2.86724686 0.57344937 3.8614515 0.8614515 6 3 C5.67 3.99 5.34 4.98 5 6 C3.31237149 4.3545622 1.6459651 2.68711423 0 1 C0 0.67 0 0.34 0 0 Z " fill="#929292" transform="translate(679,543)"/>
<path d="M0 0 C0.33 0 0.66 0 1 0 C1 3.96 1 7.92 1 12 C-2 6 -2 6 -1.0625 2.875 C-0.5365625 1.451875 -0.5365625 1.451875 0 0 Z " fill="#7A7A7A" transform="translate(551,535)"/>
</svg>
